<svg width="2101" height="2101" viewBox="0 0 2101 2101" fill="none" xmlns="http://www.w3.org/2000/svg">
<rect width="2101" height="2101" fill="#4E2379"/>
<path d="M1218.21 561.411C1265.53 581.001 1290.11 591.189 1336.11 610.234L1460.38 551.175C1461.23 552.025 1462.07 552.863 1462.89 553.688L1468.18 551.175L1586.79 669.761L1525.99 797.642C1546.17 846.36 1556.37 870.976 1576.55 919.694L1710 967.158V1134.86L1576.57 1182.31C1556.39 1231.02 1546.19 1255.64 1526.01 1304.36L1586.81 1432.24L1468.2 1550.83L1462.91 1548.31C1462.07 1549.15 1461.23 1549.99 1460.4 1550.83L1336.12 1491.76C1290.12 1510.81 1265.53 1521 1218.21 1540.59L1170.76 1674H995.242L947.787 1540.59C900.468 1521 875.884 1510.81 829.878 1491.76L705.604 1550.83C704.766 1549.99 703.927 1549.15 703.089 1548.31L697.799 1550.83L579.194 1432.24L639.991 1304.36C619.814 1255.64 609.609 1231.02 589.432 1182.31L456 1134.86V967.158L589.448 919.694C609.626 870.976 619.83 846.36 640.008 797.642L579.211 669.761L697.815 551.175L703.105 553.688C703.932 552.863 704.771 552.025 705.621 551.175L829.887 610.234C875.887 591.188 900.471 581.001 947.787 561.411L995.242 428H1170.76L1218.21 561.411ZM1083 710.184C1029.61 710.784 979.185 723.667 934.375 746.133H934.358L930.984 743.921C816.901 799.028 738.203 915.821 738.203 1050.99C738.203 1095.37 746.689 1137.76 762.124 1176.64V1154.77C805.652 1291.08 932.616 1390.13 1083 1391.82C1233.38 1390.13 1360.35 1291.08 1403.88 1154.77V1176.64C1419.31 1137.76 1427.8 1095.37 1427.8 1050.99C1427.8 915.82 1349.1 799.028 1235.01 743.921L1231.64 746.133H1231.62C1186.82 723.667 1136.39 710.784 1083 710.184Z" fill="#7B7B7B"/>
<mask id="path-2-outside-1_1_298" maskUnits="userSpaceOnUse" x="103" y="331" width="1506" height="1641" fill="black">
<rect fill="white" x="103" y="331" width="1506" height="1641"/>
<path d="M1332.96 633.596L1538.44 524.438V1002.03L1265.53 1191.97L1390.33 713.07L1291.26 809.389L1281.88 713.07L908.378 1288.29L1190.64 1217.38L392 1712L1165.21 713.07L1014.05 745.167L1557.7 389L1332.96 633.596Z"/>
</mask>
<path d="M1332.96 633.596L1538.44 524.438V1002.03L1265.53 1191.97L1390.33 713.07L1291.26 809.389L1281.88 713.07L908.378 1288.29L1190.64 1217.38L392 1712L1165.21 713.07L1014.05 745.167L1557.7 389L1332.96 633.596Z" fill="#C3C2C4"/>
<path d="M1332.96 633.596L1282.15 586.912L1009.67 883.471L1365.33 694.531L1332.96 633.596ZM1538.44 524.438H1607.44V409.651L1506.07 463.503L1538.44 524.438ZM1538.44 1002.03L1577.86 1058.66L1607.44 1038.07V1002.03H1538.44ZM1265.53 1191.97L1198.76 1174.57L1151.67 1355.29L1304.95 1248.61L1265.53 1191.97ZM1390.33 713.07L1457.1 730.469L1519.42 491.316L1342.23 663.6L1390.33 713.07ZM1291.26 809.389L1222.59 816.078L1236.5 958.877L1339.37 858.859L1291.26 809.389ZM1281.88 713.07L1350.56 706.381L1331.43 510.056L1224.01 675.494L1281.88 713.07ZM908.378 1288.29L850.507 1250.72L754.87 1398L925.191 1355.21L908.378 1288.29ZM1190.64 1217.38L1226.97 1276.04L1173.83 1150.46L1190.64 1217.38ZM392 1712L337.436 1669.77L103.73 1971.7L428.331 1770.66L392 1712ZM1165.21 713.07L1219.77 755.305L1334.96 606.486L1150.88 645.575L1165.21 713.07ZM1014.05 745.167L976.238 687.45L668.465 889.087L1028.38 812.662L1014.05 745.167ZM1557.7 389L1608.51 435.684L1519.88 331.283L1557.7 389ZM1332.96 633.596L1365.33 694.531L1570.81 585.374L1538.44 524.438L1506.07 463.503L1300.59 572.66L1332.96 633.596ZM1538.44 524.438H1469.44V1002.03H1538.44H1607.44V524.438H1538.44ZM1538.44 1002.03L1499.02 945.393L1226.11 1135.34L1265.53 1191.97L1304.95 1248.61L1577.86 1058.66L1538.44 1002.03ZM1265.53 1191.97L1332.3 1209.37L1457.1 730.469L1390.33 713.07L1323.56 695.671L1198.76 1174.57L1265.53 1191.97ZM1390.33 713.07L1342.23 663.6L1243.16 759.918L1291.26 809.389L1339.37 858.859L1438.43 762.541L1390.33 713.07ZM1291.26 809.389L1359.94 802.699L1350.56 706.381L1281.88 713.07L1213.21 719.76L1222.59 816.078L1291.26 809.389ZM1281.88 713.07L1224.01 675.494L850.507 1250.72L908.378 1288.29L966.248 1325.87L1339.75 750.647L1281.88 713.07ZM908.378 1288.29L925.191 1355.21L1207.45 1284.3L1190.64 1217.38L1173.83 1150.46L891.565 1221.37L908.378 1288.29ZM1190.64 1217.38L1154.31 1158.72L355.669 1653.34L392 1712L428.331 1770.66L1226.97 1276.04L1190.64 1217.38ZM392 1712L446.564 1754.23L1219.77 755.305L1165.21 713.07L1110.64 670.836L337.436 1669.77L392 1712ZM1165.21 713.07L1150.88 645.575L999.719 677.672L1014.05 745.167L1028.38 812.662L1179.54 780.565L1165.21 713.07ZM1014.05 745.167L1051.86 802.884L1595.51 446.717L1557.7 389L1519.88 331.283L976.238 687.45L1014.05 745.167ZM1557.7 389L1506.89 342.316L1282.15 586.912L1332.96 633.596L1383.77 680.28L1608.51 435.684L1557.7 389Z" fill="#4E2379" mask="url(#path-2-outside-1_1_298)"/>
<path fill-rule="evenodd" clip-rule="evenodd" d="M787.258 1201.36L392 1712L1190.64 1217.38L908.378 1288.29L1002.23 1143.76L787.258 1201.36ZM1298.81 1064.29L1265.53 1191.98L1538.44 1002.03V1000.08L1298.81 1064.29Z" fill="#9E9E9E"/>
</svg>
